<svg width="125" height="40" viewBox="0 0 125 40" fill="none" xmlns="http://www.w3.org/2000/svg">
<path d="M27.9673 0.484959V8.74263H8.92988V11.4952H23.0556V14.2477H6.13342V5.99008H25.1708V3.23752H3.33696V22.4701H25.1708V19.7176H6.13342V16.965H27.9673V25.2227H0.540504V0.484959H27.9673ZM48.7543 16.965L50.3676 14.2125L55.2435 22.4701H58.4702C57.7532 21.3409 50.9413 9.87189 50.3676 8.74263L43.3406 20.741L40.7234 25.2227H31.0434C31.5812 24.3405 35.2022 18.1296 38.6799 12.1657C40.7234 8.67206 42.9821 4.75495 45.5276 0.484959H48.7543L42.0858 11.8481L35.8834 22.4701H39.1101C43.5199 14.8124 46.2805 10.2954 50.3676 3.23752C50.6186 3.66099 63.2385 25.1874 63.3102 25.2227H53.6302L48.7543 16.965ZM93.9565 25.2227H84.2765L81.014 19.6823H74.7398V25.2227H66.3863V11.4599L86.8937 11.4952C89.2241 11.4952 91.0884 9.62486 91.0884 7.36635C91.0884 5.07256 89.2241 3.23752 86.8937 3.23752H69.1828V5.99008H86.8937C87.6466 6.02536 88.2202 6.62528 88.2202 7.36635C88.2202 8.10743 87.6466 8.70734 86.8937 8.74263H86.8578H86.822H66.3863V0.484959H86.8937C90.7657 0.484959 93.8848 3.55512 93.8848 7.36635C93.8848 11.1423 90.7657 14.2477 86.8937 14.2477L69.1828 14.2125V22.4701H71.9792V16.9297H82.6273C83.7746 18.9765 85.7106 22.1172 85.8898 22.4701H89.1165C88.8297 22.082 87.1805 19.1882 85.854 16.9297H89.0807C90.2638 18.9412 91.4469 21.0233 92.4149 22.576L93.9565 25.2227ZM116.07 12.5892V0.484959H124.459V25.2227H116.07L102.626 9.90718V5.67247L117.361 22.4701H121.663V3.23752H118.867V19.9999L104.131 3.23752H99.8291V22.4701H102.626V14.1419L105.422 17.3179V25.2227H97.0326V0.484959H105.422L116.07 12.5892Z" fill="black"/>
<path d="M8.42111 35.3231C9.81845 35.6063 11.0976 36.0158 11.0976 37.5126C11.0976 38.7262 10.2705 39.515 8.45193 39.515C6.89534 39.515 5.96036 38.9487 5.85247 37.7857C5.8422 37.6845 5.90385 37.6036 5.99632 37.6036H6.62306C6.71553 37.6036 6.76691 37.6744 6.77718 37.7553C6.86452 38.3116 7.46044 38.6554 8.45193 38.6554C9.54617 38.6554 10.1524 38.2913 10.1524 37.5227C10.1524 36.6277 9.52049 36.4355 8.42111 36.1827C7.11624 35.8894 6.01687 35.4495 6.01687 34.0792C6.01687 32.9364 6.80287 32.1981 8.39029 32.1981C9.85955 32.1981 10.7637 32.7493 10.8819 33.8921C10.8921 33.9932 10.8305 34.0438 10.738 34.0438H10.1575C10.065 34.0438 10.0137 34.0033 10.0034 33.9224C9.92633 33.4066 9.35609 33.0426 8.39542 33.0426C7.51181 33.0426 6.94158 33.3965 6.94158 34.0792C6.94158 34.7669 7.40907 35.1158 8.42111 35.3231ZM18.0229 32.2841C18.1154 32.2841 18.1771 32.3447 18.1771 32.4358V32.992C18.1771 33.083 18.1154 33.1437 18.0229 33.1437H15.8704V39.2116C15.8704 39.3027 15.8088 39.3633 15.7163 39.3633H15.0639C14.9714 39.3633 14.9097 39.3027 14.9097 39.2116V33.1437H12.7572C12.6648 33.1437 12.6031 33.083 12.6031 32.992V32.4358C12.6031 32.3447 12.6648 32.2841 12.7572 32.2841H18.0229ZM25.7548 39.1914C25.7959 39.2925 25.7445 39.3633 25.6315 39.3633H24.9688C24.8866 39.3633 24.8301 39.333 24.7941 39.242L24.2855 37.8817H20.9874L20.4788 39.242C20.4428 39.333 20.3863 39.3633 20.3041 39.3633H19.6414C19.5284 39.3633 19.477 39.2925 19.5181 39.1914L22.1279 32.4054C22.1587 32.3245 22.2306 32.2841 22.3128 32.2841H22.9601C23.0423 32.2841 23.1142 32.3245 23.1451 32.4054L25.7548 39.1914ZM21.3008 37.0474H23.9722L22.6365 33.4673L21.3008 37.0474ZM32.9575 37.8868L33.3685 38.3116C33.4404 38.3823 33.4353 38.4582 33.3633 38.5239C32.7058 39.1408 31.8992 39.4948 30.9129 39.4948C28.8682 39.4948 27.2757 37.8767 27.2757 35.854C27.2757 33.8162 28.8682 32.2032 30.9129 32.2032C31.8992 32.2032 32.7058 32.5723 33.3633 33.169C33.4353 33.2347 33.4404 33.3106 33.3685 33.3813L32.9575 33.8112C32.8856 33.882 32.8137 33.8718 32.7417 33.8112C32.2332 33.3864 31.6578 33.1235 30.9129 33.1235C29.4385 33.1235 28.2569 34.2915 28.2569 35.854C28.2569 37.4014 29.4385 38.5694 30.9129 38.5694C31.6578 38.5694 32.2332 38.3116 32.7417 37.8817C32.8137 37.8211 32.8856 37.816 32.9575 37.8868ZM40.4068 39.1813C40.4787 39.2824 40.4376 39.3633 40.3143 39.3633H39.5283C39.4461 39.3633 39.3948 39.3431 39.3434 39.2723L36.9648 36.0866L36.1686 36.9665V39.2116C36.1686 39.3027 36.1069 39.3633 36.0144 39.3633H35.362C35.2695 39.3633 35.2079 39.3027 35.2079 39.2116V32.4358C35.2079 32.3447 35.2695 32.2841 35.362 32.2841H36.0144C36.1069 32.2841 36.1686 32.3447 36.1686 32.4358V35.7074L39.1585 32.365C39.2098 32.3043 39.2715 32.2841 39.3434 32.2841H40.1654C40.2989 32.2841 40.34 32.3751 40.2476 32.4661L37.5864 35.404L40.4068 39.1813ZM52.3361 32.2841C52.4594 32.2841 52.5056 32.3599 52.4388 32.4661L49.7418 36.6176V39.2116C49.7418 39.3027 49.6801 39.3633 49.5876 39.3633H48.9352C48.8427 39.3633 48.7811 39.3027 48.7811 39.2116V36.6176L46.0789 32.4661C46.0121 32.3599 46.0583 32.2841 46.1816 32.2841H46.9368C47.019 32.2841 47.0755 32.3144 47.1217 32.3852L49.2589 35.6771L51.396 32.3852C51.4422 32.3144 51.4987 32.2841 51.5809 32.2841H52.3361ZM57.6072 39.4948C55.5728 39.4948 53.9238 37.8767 53.9238 35.854C53.9238 33.8213 55.5728 32.2032 57.6072 32.2032C59.6364 32.2032 61.2855 33.8213 61.2855 35.854C61.2855 37.8767 59.6364 39.4948 57.6072 39.4948ZM57.6072 38.5998C59.1329 38.5998 60.3402 37.3862 60.3402 35.854C60.3402 34.3118 59.1329 33.0982 57.6072 33.0982C56.0763 33.0982 54.869 34.3118 54.869 35.854C54.869 37.3862 56.0763 38.5998 57.6072 38.5998ZM68.7656 32.2841C68.8581 32.2841 68.9197 32.3447 68.9197 32.4358V36.5013C68.9197 38.5138 67.8152 39.51 66.0069 39.51C64.2037 39.51 63.0992 38.5138 63.0992 36.5013V32.4358C63.0992 32.3447 63.1608 32.2841 63.2533 32.2841H63.9057C63.9982 32.2841 64.0599 32.3447 64.0599 32.4358V36.5013C64.0599 37.9323 64.8304 38.615 66.0069 38.615C67.1885 38.615 67.959 37.9323 67.959 36.5013V32.4358C67.959 32.3447 68.0207 32.2841 68.1132 32.2841H68.7656ZM74.7097 36.6176L76.0865 39.1864C76.143 39.2925 76.0916 39.3633 75.9734 39.3633H75.2953C75.2131 39.3633 75.1566 39.3279 75.1155 39.2521L73.7901 36.7288H73.6411H71.8996V39.2116C71.8996 39.3027 71.8379 39.3633 71.7455 39.3633H71.093C71.0006 39.3633 70.9389 39.3027 70.9389 39.2116V32.4358C70.9389 32.3447 71.0006 32.2841 71.093 32.2841H73.6411C75.5368 32.2841 76.2303 33.0729 76.2303 34.5039C76.2303 35.6265 75.8039 36.3546 74.7097 36.6176ZM71.8996 33.1437V35.8692H73.7079C74.6634 35.8692 75.3005 35.6164 75.3005 34.5039C75.3005 33.3965 74.6634 33.1437 73.7079 33.1437H71.8996ZM88.0055 37.8868L88.4165 38.3116C88.4884 38.3823 88.4832 38.4582 88.4113 38.5239C87.7537 39.1408 86.9472 39.4948 85.9608 39.4948C83.9162 39.4948 82.3236 37.8767 82.3236 35.854C82.3236 33.8162 83.9162 32.2032 85.9608 32.2032C86.9472 32.2032 87.7537 32.5723 88.4113 33.169C88.4832 33.2347 88.4884 33.3106 88.4165 33.3813L88.0055 33.8112C87.9335 33.882 87.8616 33.8718 87.7897 33.8112C87.2811 33.3864 86.7057 33.1235 85.9608 33.1235C84.4864 33.1235 83.3049 34.2915 83.3049 35.854C83.3049 37.4014 84.4864 38.5694 85.9608 38.5694C86.7057 38.5694 87.2811 38.3116 87.7897 37.8817C87.8616 37.8211 87.9335 37.816 88.0055 37.8868ZM93.8622 39.4948C91.8279 39.4948 90.1788 37.8767 90.1788 35.854C90.1788 33.8213 91.8279 32.2032 93.8622 32.2032C95.8914 32.2032 97.5405 33.8213 97.5405 35.854C97.5405 37.8767 95.8914 39.4948 93.8622 39.4948ZM93.8622 38.5998C95.388 38.5998 96.5952 37.3862 96.5952 35.854C96.5952 34.3118 95.388 33.0982 93.8622 33.0982C92.3313 33.0982 91.124 34.3118 91.124 35.854C91.124 37.3862 92.3313 38.5998 93.8622 38.5998ZM104.363 33.1437H102.442V38.5037H104.363C104.456 38.5037 104.517 38.5644 104.517 38.6554V39.2116C104.517 39.3027 104.456 39.3633 104.363 39.3633H99.5597C99.4672 39.3633 99.4056 39.3027 99.4056 39.2116V38.6554C99.4056 38.5644 99.4672 38.5037 99.5597 38.5037H101.481V33.1437H99.5597C99.4672 33.1437 99.4056 33.083 99.4056 32.992V32.4358C99.4056 32.3447 99.4672 32.2841 99.5597 32.2841H104.363C104.456 32.2841 104.517 32.3447 104.517 32.4358V32.992C104.517 33.083 104.456 33.1437 104.363 33.1437ZM111.859 32.2841C111.951 32.2841 112.013 32.3447 112.013 32.4358V39.2116C112.013 39.2925 111.961 39.3532 111.884 39.3633H111.042C110.96 39.3633 110.898 39.333 110.857 39.2622L107.548 33.6797V39.2116C107.548 39.3027 107.487 39.3633 107.394 39.3633H106.742C106.649 39.3633 106.588 39.3027 106.588 39.2116V32.4358C106.588 32.3498 106.639 32.2942 106.721 32.2841H107.559C107.641 32.2841 107.703 32.3144 107.744 32.3852L111.052 37.9626V32.4358C111.052 32.3447 111.114 32.2841 111.206 32.2841H111.859ZM116.472 35.3231C117.869 35.6063 119.149 36.0158 119.149 37.5126C119.149 38.7262 118.322 39.515 116.503 39.515C114.946 39.515 114.011 38.9487 113.903 37.7857C113.893 37.6845 113.955 37.6036 114.047 37.6036H114.674C114.767 37.6036 114.818 37.6744 114.828 37.7553C114.916 38.3116 115.511 38.6554 116.503 38.6554C117.597 38.6554 118.203 38.2913 118.203 37.5227C118.203 36.6277 117.572 36.4355 116.472 36.1827C115.167 35.8894 114.068 35.4495 114.068 34.0792C114.068 32.9364 114.854 32.1981 116.441 32.1981C117.911 32.1981 118.815 32.7493 118.933 33.8921C118.943 33.9932 118.882 34.0438 118.789 34.0438H118.209C118.116 34.0438 118.065 34.0033 118.054 33.9224C117.977 33.4066 117.407 33.0426 116.446 33.0426C115.563 33.0426 114.993 33.3965 114.993 34.0792C114.993 34.7669 115.46 35.1158 116.472 35.3231Z" fill="black"/>
</svg>
