<svg width="23" height="22" viewBox="0 0 23 22" fill="none" xmlns="http://www.w3.org/2000/svg">
<path opacity="0.4" d="M17.5258 1.83333H15.7841C13.7858 1.83333 12.7316 2.8875 12.7316 4.88583V6.6275C12.7316 8.62583 13.7858 9.68 15.7841 9.68H17.5258C19.5241 9.68 20.5783 8.62583 20.5783 6.6275V4.88583C20.5783 2.8875 19.5241 1.83333 17.5258 1.83333Z" fill="#2A2A2A" fill-opacity="0.5"/>
<path opacity="0.4" d="M7.04829 12.3108H5.30662C3.29912 12.3108 2.24496 13.365 2.24496 15.3633V17.105C2.24496 19.1125 3.29912 20.1667 5.29746 20.1667H7.03912C9.03746 20.1667 10.0916 19.1125 10.0916 17.1142V15.3725C10.1008 13.365 9.04662 12.3108 7.04829 12.3108Z" fill="#2A2A2A" fill-opacity="0.5"/>
<path d="M6.17746 9.69833C8.34932 9.69833 10.11 7.93769 10.11 5.76583C10.11 3.59397 8.34932 1.83333 6.17746 1.83333C4.0056 1.83333 2.24496 3.59397 2.24496 5.76583C2.24496 7.93769 4.0056 9.69833 6.17746 9.69833Z" fill="#2A2A2A" fill-opacity="0.5"/>
<path d="M16.6458 20.1667C18.8176 20.1667 20.5783 18.406 20.5783 16.2342C20.5783 14.0623 18.8176 12.3017 16.6458 12.3017C14.4739 12.3017 12.7133 14.0623 12.7133 16.2342C12.7133 18.406 14.4739 20.1667 16.6458 20.1667Z" fill="#2A2A2A" fill-opacity="0.5"/>
</svg>
