<svg width="17" height="17" viewBox="0 0 17 17" fill="none" xmlns="http://www.w3.org/2000/svg">
<path d="M16.6215 7.05898L14.6326 6.5709C14.523 6.22227 14.3836 5.88359 14.2143 5.55488L15.2303 3.86152C15.3498 3.6623 15.3199 3.41328 15.1605 3.25391L13.7461 1.83945C13.5867 1.68008 13.3377 1.6502 13.1385 1.76973L11.4451 2.78574C11.1164 2.61641 10.7777 2.47695 10.4291 2.36738L9.95098 0.378516C9.89121 0.159375 9.69199 0 9.46289 0H7.4707C7.2416 0 7.04238 0.159375 6.98262 0.378516L6.50449 2.36738C6.15586 2.47695 5.81719 2.61641 5.48848 2.78574L3.79512 1.76973C3.5959 1.6502 3.34687 1.68008 3.1875 1.83945L1.77305 3.25391C1.61367 3.41328 1.58379 3.6623 1.70332 3.86152L2.71934 5.55488C2.55 5.88359 2.41055 6.22227 2.30098 6.5709L0.378516 7.05898C0.159375 7.10879 0 7.30801 0 7.53711V9.5293C0 9.7584 0.159375 9.95762 0.378516 10.0074L2.30098 10.4955C2.41055 10.8441 2.55 11.1828 2.71934 11.5115L1.70332 13.2049C1.58379 13.4041 1.61367 13.6531 1.77305 13.8125L3.1875 15.227C3.34687 15.3863 3.5959 15.4162 3.79512 15.2967L5.48848 14.2807C5.81719 14.45 6.15586 14.5895 6.50449 14.699L6.98262 16.6215C7.04238 16.8406 7.2416 17 7.4707 17H9.46289C9.69199 17 9.89121 16.8406 9.95098 16.6215L10.4291 14.699C10.7777 14.5895 11.1164 14.45 11.4451 14.2807L13.1385 15.2967C13.3377 15.4162 13.5867 15.3863 13.7461 15.227L15.1605 13.8125C15.3199 13.6531 15.3498 13.4041 15.2303 13.2049L14.2143 11.5115C14.3836 11.1828 14.523 10.8441 14.6326 10.4955L16.6215 10.0074C16.8406 9.95762 17 9.7584 17 9.5293V7.53711C17 7.30801 16.8406 7.10879 16.6215 7.05898ZM8.4668 11.0234C7.09219 11.0234 5.97656 9.90781 5.97656 8.5332C5.97656 7.15859 7.09219 6.04297 8.4668 6.04297C9.84141 6.04297 10.957 7.15859 10.957 8.5332C10.957 9.90781 9.84141 11.0234 8.4668 11.0234Z" fill="#2A2A2A" fill-opacity="0.5"/>
</svg>
