<svg width="38" height="38" viewBox="0 0 38 38" fill="none" xmlns="http://www.w3.org/2000/svg">
<g clip-path="url(#clip0_80_1485)">
<path fill-rule="evenodd" clip-rule="evenodd" d="M11.1842 0.647371C10.5512 -0.148762 9.34801 -0.222031 8.61888 0.49115L6.51642 2.54762C5.78728 3.26081 5.86219 4.43768 6.67613 5.05689L16.053 12.1905L18.2085 10.0821L20.364 12.1905L29.7409 5.05689C30.5547 4.43768 30.6295 3.26081 29.9004 2.54762L27.7981 0.49115C27.069 -0.222031 25.8657 -0.148762 25.2326 0.647371L18.2085 9.48099L11.1842 0.647371Z" fill="url(#paint0_linear_80_1485)"/>
<path d="M36.0002 9.20892H1.7143C0.767514 9.20892 0 9.95965 0 10.8857V15.9161C0 16.8422 0.767514 17.593 1.7143 17.593H36.0002C36.9469 17.593 37.7144 16.8422 37.7144 15.9161V10.8857C37.7144 9.95965 36.9469 9.20892 36.0002 9.20892Z" fill="url(#paint1_linear_80_1485)"/>
<path d="M3.4281 17.5927H34.2853V34.3608C34.2853 36.2129 32.7504 37.7143 30.8567 37.7143H6.85668C4.96314 37.7143 3.4281 36.2129 3.4281 34.3608V17.5927Z" fill="url(#paint2_linear_80_1485)"/>
<path d="M22.2863 9.20892H15.4291V37.7145H22.2863V9.20892Z" fill="white"/>
</g>
<defs>
<linearGradient id="paint0_linear_80_1485" x1="18.2084" y1="-9.28063e-08" x2="18.2084" y2="12.1905" gradientUnits="userSpaceOnUse">
<stop stop-color="#FE9B13"/>
<stop offset="1" stop-color="#FE9B13"/>
</linearGradient>
<linearGradient id="paint1_linear_80_1485" x1="18.8572" y1="9.20892" x2="18.8572" y2="17.593" gradientUnits="userSpaceOnUse">
<stop stop-color="#FA9644"/>
<stop offset="1" stop-color="#FE6E2C"/>
</linearGradient>
<linearGradient id="paint2_linear_80_1485" x1="31.7208" y1="19.2711" x2="16.9761" y2="44.1823" gradientUnits="userSpaceOnUse">
<stop stop-color="#F75D00"/>
<stop offset="1" stop-color="#F86710"/>
</linearGradient>
<clipPath id="clip0_80_1485">
<rect width="37.7144" height="37.7144" fill="white"/>
</clipPath>
</defs>
</svg>
