<svg width="19" height="19" viewBox="0 0 19 19" fill="none" xmlns="http://www.w3.org/2000/svg">
<g clip-path="url(#clip0_44_539)">
<path d="M15.8333 7.125C15.342 7.13267 14.8642 7.2877 14.4619 7.56999C14.0597 7.85228 13.7514 8.24885 13.5771 8.70833H10.2125C10.0967 8.24008 9.89537 7.79724 9.61875 7.40208L11.0042 5.77917C11.2853 5.87349 11.5786 5.92682 11.875 5.9375C12.3447 5.9375 12.8039 5.79821 13.1945 5.53724C13.585 5.27627 13.8895 4.90535 14.0692 4.47137C14.249 4.0374 14.296 3.55986 14.2044 3.09916C14.1127 2.63845 13.8865 2.21527 13.5544 1.88312C13.2222 1.55097 12.799 1.32477 12.3383 1.23313C11.8776 1.14149 11.4001 1.18853 10.9661 1.36828C10.5321 1.54804 10.1612 1.85245 9.90026 2.24302C9.63929 2.63359 9.5 3.09277 9.5 3.5625C9.50136 3.97902 9.61045 4.3881 9.81666 4.75L8.39166 6.37292C7.88453 6.08631 7.31168 5.93627 6.72916 5.9375L6.05625 6.01666L5.58125 4.90833C5.98675 4.53238 6.24837 4.02671 6.32098 3.47853C6.39359 2.93035 6.27264 2.37401 5.97899 1.90545C5.68534 1.4369 5.23739 1.08549 4.7124 0.911834C4.1874 0.738177 3.61826 0.753154 3.10313 0.954183C2.58799 1.15521 2.15915 1.52969 1.89055 2.01304C1.62195 2.4964 1.53043 3.05832 1.63177 3.60193C1.7331 4.14554 2.02095 4.63674 2.44567 4.99085C2.87039 5.34495 3.40536 5.53975 3.95833 5.54167H4.11666L4.63125 6.65C4.18151 6.97678 3.81549 7.40536 3.56312 7.9007C3.31075 8.39604 3.17919 8.94407 3.17919 9.5C3.17919 10.0559 3.31075 10.604 3.56312 11.0993C3.81549 11.5946 4.18151 12.0232 4.63125 12.35L4.11666 13.4583H3.95833C3.40536 13.4602 2.87039 13.655 2.44567 14.0092C2.02095 14.3633 1.7331 14.8545 1.63177 15.3981C1.53043 15.9417 1.62195 16.5036 1.89055 16.987C2.15915 17.4703 2.58799 17.8448 3.10313 18.0458C3.61826 18.2468 4.1874 18.2618 4.7124 18.0882C5.23739 17.9145 5.68534 17.5631 5.97899 17.0945C6.27264 16.626 6.39359 16.0696 6.32098 15.5215C6.24837 14.9733 5.98675 14.4676 5.58125 14.0917L6.05625 12.9833L6.72916 13.0625C7.31168 13.0637 7.88453 12.9137 8.39166 12.6271L9.81666 14.25C9.61045 14.6119 9.50136 15.021 9.5 15.4375C9.5 15.9072 9.63929 16.3664 9.90026 16.757C10.1612 17.1475 10.5321 17.452 10.9661 17.6317C11.4001 17.8115 11.8776 17.8585 12.3383 17.7669C12.799 17.6752 13.2222 17.449 13.5544 17.1169C13.8865 16.7847 14.1127 16.3615 14.2044 15.9008C14.296 15.4401 14.249 14.9626 14.0692 14.5286C13.8895 14.0947 13.585 13.7237 13.1945 13.4628C12.8039 13.2018 12.3447 13.0625 11.875 13.0625C11.5786 13.0732 11.2853 13.1265 11.0042 13.2208L9.61875 11.5979C9.89537 11.2028 10.0967 10.7599 10.2125 10.2917H13.5771C13.7514 10.7511 14.0597 11.1477 14.4619 11.43C14.8642 11.7123 15.342 11.8673 15.8333 11.875C16.4632 11.875 17.0673 11.6248 17.5127 11.1794C17.9581 10.734 18.2083 10.1299 18.2083 9.5C18.2083 8.87011 17.9581 8.26602 17.5127 7.82062C17.0673 7.37522 16.4632 7.125 15.8333 7.125Z" fill="#2A2A2A"/>
</g>
<defs>
<clipPath id="clip0_44_539">
<rect width="19" height="19" fill="white"/>
</clipPath>
</defs>
</svg>
